<svg width="14" height="18" viewBox="0 0 14 18" fill="none" xmlns="http://www.w3.org/2000/svg">
    <path d="M7.00004 17.3334C5.09726 17.3334 3.5106 16.6806 2.24004 15.375C0.96893 14.0695 0.333374 12.4445 0.333374 10.5C0.333374 9.11113 0.885596 7.60085 1.99004 5.96919C3.09393 4.33696 4.76393 2.56946 7.00004 0.666687C9.23615 2.56946 10.9064 4.33696 12.0109 5.96919C13.1148 7.60085 13.6667 9.11113 13.6667 10.5C13.6667 12.4445 13.0312 14.0695 11.76 15.375C10.4895 16.6806 8.90282 17.3334 7.00004 17.3334ZM4.50004 14H9.50004V12.3334H4.50004V14ZM6.16671 11.5H7.83337V9.83335H9.50004V8.16669H7.83337V6.50002H6.16671V8.16669H4.50004V9.83335H6.16671V11.5Z" fill="#6750A4"/>
</svg>
